<svg width="26" height="16" viewBox="0 0 26 16" fill="none" xmlns="http://www.w3.org/2000/svg">
<path d="M0.900108 7.94388C0.866631 7.90231 0.86663 7.84769 0.900107 7.80612C1.48407 7.08103 6.65323 0.875 12.512 0.875C18.3707 0.875 23.5399 7.08102 24.1238 7.80612C24.1573 7.84769 24.1573 7.90231 24.1238 7.94388C23.5399 8.66897 18.3707 14.875 12.512 14.875C6.65324 14.875 1.48407 8.66898 0.900108 7.94388Z" fill="white"/>
<path fill-rule="evenodd" clip-rule="evenodd" d="M1.98608 7.875C2.58616 8.56249 3.74843 9.80325 5.26737 10.9924C7.31088 12.5921 9.87537 14 12.512 14C15.1486 14 17.7131 12.5921 19.7566 10.9924C21.2755 9.80325 22.4378 8.56249 23.0378 7.875C22.4378 7.18751 21.2755 5.94675 19.7565 4.75763C17.713 3.15786 15.1486 1.75 12.512 1.75C9.87537 1.75 7.31087 3.15786 5.26737 4.75763C3.74843 5.94675 2.58616 7.18751 1.98608 7.875ZM4.18862 3.37967C6.34038 1.69515 9.28983 0 12.512 0C15.7341 0 18.6835 1.69515 20.8353 3.37966C23.0067 5.07959 24.4927 6.86912 24.8053 7.25729C25.0968 7.61925 25.0968 8.13074 24.8053 8.49271C24.4927 8.88088 23.0067 10.6704 20.8353 12.3703C18.6835 14.0549 15.7341 15.75 12.512 15.75C9.28983 15.75 6.34038 14.0549 4.18862 12.3703C2.01719 10.6704 0.531247 8.88088 0.218631 8.49271C-0.0728706 8.13075 -0.072883 7.61926 0.21863 7.25729C0.531245 6.86912 2.01719 5.07959 4.18862 3.37967Z" fill="#C2C3CB"/>
<path d="M16.012 7.875C16.012 9.808 14.445 11.375 12.512 11.375C10.579 11.375 9.01196 9.808 9.01196 7.875C9.01196 5.942 10.579 4.375 12.512 4.375C14.445 4.375 16.012 5.942 16.012 7.875Z" fill="white"/>
<path fill-rule="evenodd" clip-rule="evenodd" d="M12.512 5.25C11.0622 5.25 9.88696 6.42525 9.88696 7.875C9.88696 9.32475 11.0622 10.5 12.512 10.5C13.9617 10.5 15.137 9.32475 15.137 7.875C15.137 6.42525 13.9617 5.25 12.512 5.25ZM8.13696 7.875C8.13696 5.45875 10.0957 3.5 12.512 3.5C14.9282 3.5 16.887 5.45875 16.887 7.875C16.887 10.2912 14.9282 12.25 12.512 12.25C10.0957 12.25 8.13696 10.2912 8.13696 7.875Z" fill="#C2C3CB"/>
</svg>
